<?xml version="1.0" encoding="utf-8"?>
<!-- Generator: Adobe Illustrator 25.4.1, SVG Export Plug-In . SVG Version: 6.00 Build 0)  -->
<svg version="1.1" id="레이어_1" xmlns="http://www.w3.org/2000/svg" xmlns:xlink="http://www.w3.org/1999/xlink" x="0px"
	 y="0px" viewBox="0 0 30.8 31.3" style="enable-background:new 0 0 30.8 31.3;" xml:space="preserve">
<style type="text/css">
	.st0{fill:none;stroke:#D2D3D4;stroke-width:1.9;stroke-linecap:round;stroke-linejoin:round;stroke-miterlimit:10;}
	.st1{fill:#D2D3D4;}
</style>
<line class="st0" x1="0.9" y1="27.1" x2="28.5" y2="3.4"/>
<g>
	<path class="st1" d="M26.2,8.8c0.3-0.2,0.7-0.1,0.8,0.2c0.3,1.2,0.5,2.3,0.5,3.7v6.9c0,0.1,0,0.2,0.1,0.3l2.4,3.5
		c0.9,0.8,1.1,2.1,0.5,3.2c-0.5,0.8-1.4,1.3-2.4,1.3L5.5,27.8c-0.5,0-0.7-0.6-0.3-0.9L26.2,8.8z"/>
	<path class="st1" d="M23.6,4.1c0.2-0.2,0.3-0.6,0-0.8C21.6,1.2,19,0,16,0C9.2,0,4,6.2,4,13.3v5.8c0,0.9-0.3,1.8-0.8,2.5l-1.1,1.6
		L23.6,4.1z"/>
</g>
<path class="st1" d="M11.6,27.4c0,2.2,1.7,3.9,3.9,3.9s3.9-1.7,3.9-3.9H11.6z"/>
</svg>
