<?xml version="1.0" encoding="utf-8"?>
<!-- Generator: Adobe Illustrator 25.4.1, SVG Export Plug-In . SVG Version: 6.00 Build 0)  -->
<svg version="1.1" id="레이어_1" xmlns="http://www.w3.org/2000/svg" xmlns:xlink="http://www.w3.org/1999/xlink" x="0px"
	 y="0px" viewBox="0 0 17.6 17.6" style="enable-background:new 0 0 17.6 17.6;" xml:space="preserve">
<style type="text/css">
	.st0{fill:#FE7966;}
	.st1{fill:#FFFFFF;}
</style>
<circle class="st0" cx="8.8" cy="8.8" r="8.8"/>
<path class="st1" d="M8.6,5.4L5.8,7.6C5.7,7.7,5.6,7.8,5.6,7.9v3.7c0,0.2,0.2,0.3,0.3,0.3h1.6c0.2,0,0.3-0.1,0.3-0.3v-0.9
	c0-0.5,0.4-0.9,0.9-0.9l0,0c0.5,0,0.9,0.5,0.9,0.9v0.9c0,0.2,0.2,0.3,0.3,0.3h1.6c0.2,0,0.3-0.1,0.3-0.3V7.9c0-0.1-0.1-0.2-0.1-0.3
	L9,5.4C8.9,5.3,8.7,5.3,8.6,5.4z"/>
</svg>
