<?xml version="1.0" encoding="utf-8"?>
<!-- Generator: Adobe Illustrator 25.4.1, SVG Export Plug-In . SVG Version: 6.00 Build 0)  -->
<svg version="1.1" id="레이어_1" xmlns="http://www.w3.org/2000/svg" xmlns:xlink="http://www.w3.org/1999/xlink" x="0px"
	 y="0px" viewBox="0 0 17.6 17.6" style="enable-background:new 0 0 17.6 17.6;" xml:space="preserve">
<style type="text/css">
	.st0{fill:#7387AD;}
	.st1{fill:#FFFFFF;}
	.st2{fill:none;stroke:#7387AD;stroke-width:0.5;stroke-linecap:round;stroke-linejoin:round;stroke-miterlimit:10;}
</style>
<circle class="st0" cx="8.8" cy="8.8" r="8.8"/>
<path class="st1" d="M11.6,9.5h-5C6.3,9.5,6,9.2,6,9V6.1c0-0.3,0.2-0.5,0.5-0.5h5c0.3,0,0.5,0.2,0.5,0.5V9
	C12.1,9.2,11.9,9.5,11.6,9.5z"/>
<line class="st2" x1="7.1" y1="6.9" x2="9.5" y2="6.9"/>
<line class="st2" x1="7.1" y1="7.9" x2="8.5" y2="7.9"/>
<path class="st1" d="M11.1,11.8H5.9c-0.3,0-0.5-0.3-0.4-0.5l0.5-1C6,10.1,6.2,10,6.4,10h5.2c0.3,0,0.5,0.3,0.4,0.5l-0.5,1
	C11.4,11.7,11.3,11.8,11.1,11.8z"/>
</svg>
