<?xml version="1.0" encoding="utf-8"?>
<!-- Generator: Adobe Illustrator 25.4.1, SVG Export Plug-In . SVG Version: 6.00 Build 0)  -->
<svg version="1.1" id="레이어_1" xmlns="http://www.w3.org/2000/svg" xmlns:xlink="http://www.w3.org/1999/xlink" x="0px"
	 y="0px" viewBox="0 0 17.6 17.6" style="enable-background:new 0 0 17.6 17.6;" xml:space="preserve">
<style type="text/css">
	.st0{fill:#7A94F4;}
	.st1{fill:#FFFFFF;}
	.st2{fill:#7A8FF9;}
</style>
<circle class="st0" cx="8.8" cy="8.8" r="8.8"/>
<g>
	<g>
		<path class="st1" d="M10.6,6.8l-0.2-0.7C10.3,6,10.2,5.9,10,5.9H7.6C7.4,5.9,7.3,6,7.2,6.1L7,6.8H5.7C5.4,6.8,5.2,7,5.2,7.3v3.6
			c0,0.3,0.2,0.5,0.5,0.5h6.1c0.3,0,0.5-0.2,0.5-0.5V7.3c0-0.3-0.2-0.5-0.5-0.5H10.6z"/>
		<circle class="st2" cx="8.8" cy="9.1" r="1.2"/>
		<circle class="st2" cx="7.3" cy="7.8" r="0.2"/>
	</g>
	<circle class="st1" cx="8.8" cy="9.2" r="0.4"/>
</g>
</svg>
