<svg xmlns="http://www.w3.org/2000/svg" width="26" height="26">
    <path data-name="사각형 1202" style="fill:none" d="M0 0h26v26H0z"/>
    <path data-name="패스 35264" d="M499.923 1136.365a.6.6 0 0 0-.478-.4l-6.838-1.045-3.064-6.525a.625.625 0 0 0-1.086 0l-.286.608-2.778 5.918-6.393.979-.445.068a.6.6 0 0 0-.339 1.013l.784.8 4.178 4.284-1.131 6.935-.042.257a.6.6 0 0 0 .592.7.588.588 0 0 0 .29-.076l1.59-.878 4.52-2.5 6.107 3.374a.6.6 0 0 0 .882-.621l-1.173-7.194 4.967-5.088a.6.6 0 0 0 .143-.609zm-6.177 5.077a.6.6 0 0 0-.163.516l1.023 6.273-5.319-2.939a.585.585 0 0 0-.287-.075v-15.159l2.657 5.659a.6.6 0 0 0 .452.339l6 .916z" transform="translate(-476.046 -1126.076)" style="fill:#f6cf46"/>
</svg>
