<?xml version="1.0" encoding="utf-8"?>
<!-- Generator: Adobe Illustrator 25.4.1, SVG Export Plug-In . SVG Version: 6.00 Build 0)  -->
<svg version="1.1" id="레이어_1" xmlns="http://www.w3.org/2000/svg" xmlns:xlink="http://www.w3.org/1999/xlink" x="0px"
	 y="0px" viewBox="0 0 9.4 10.2" style="enable-background:new 0 0 9.4 10.2;" xml:space="preserve">
<style type="text/css">
	.st0{fill:#E5E7EA;}
	.st1{fill:#DADCE0;}
	.st2{fill:#C7CDD1;}
	.st3{opacity:0.7;}
	.st4{fill:#FFFFFF;}
</style>
<path class="st0" d="M6.9,1.7H2.5V1.1C2.5,0.5,3,0,3.6,0l2.2,0c0.6,0,1.1,0.5,1.1,1.1V1.7z"/>
<path class="st1" d="M8.6,2.9C8.5,2.4,8.2,2,7.7,2H7.6H1.9H1.7C1.2,2,0.8,2.4,0.8,2.9v1.9l0,0l0,4.3c0,0.6,0.5,1.1,1,1.1h5.7
	c0.6,0,1-0.5,1-1.1V3.1C8.6,3,8.6,2.9,8.6,2.9z"/>
<path class="st2" d="M0,2.3c0-0.5,0.4-0.9,0.9-0.9h7.6c0.5,0,0.9,0.4,0.9,0.9v0c0,0.5-0.4,0.9-0.9,0.9H0.9C0.4,3.2,0,2.8,0,2.3"/>
<g>
	<g class="st3">
		<path class="st4" d="M3,7.9L3,5c0-0.3,0.2-0.5,0.5-0.5h0c0.3,0,0.5,0.2,0.5,0.5v2.9c0,0.3-0.2,0.5-0.5,0.5h0C3.3,8.4,3,8.2,3,7.9z
			"/>
	</g>
	<g class="st3">
		<path class="st4" d="M5.3,7.9V5c0-0.3,0.2-0.5,0.5-0.5h0c0.3,0,0.5,0.2,0.5,0.5v2.9c0,0.3-0.2,0.5-0.5,0.5h0
			C5.5,8.4,5.3,8.2,5.3,7.9z"/>
	</g>
</g>
</svg>
