<?xml version="1.0" encoding="utf-8"?>
<!-- Generator: Adobe Illustrator 25.4.1, SVG Export Plug-In . SVG Version: 6.00 Build 0)  -->
<svg version="1.1" id="레이어_1" xmlns="http://www.w3.org/2000/svg" xmlns:xlink="http://www.w3.org/1999/xlink" x="0px"
	 y="0px" viewBox="0 0 17.6 17.6" style="enable-background:new 0 0 17.6 17.6;" xml:space="preserve">
<style type="text/css">
	.st0{fill:#BA7FFC;}
	.st1{fill:#FFFFFF;}
</style>
<circle class="st0" cx="8.8" cy="8.8" r="8.8"/>
<g>
	<path class="st1" d="M8.3,5.4C6.9,5.6,5.8,6.5,5.4,7.8c-0.2,0.9-0.1,1.8,0.4,2.6l-0.3,1c0,0.1,0,0.2,0.1,0.4
		c0.1,0.1,0.2,0.1,0.2,0.1c0.1,0,0.1,0,0.1,0l1-0.3c0.8,0.5,1.7,0.6,2.7,0.4c1.3-0.3,2.4-1.4,2.6-2.8C12.6,6.9,10.6,5.1,8.3,5.4z"/>
	<g>
		<ellipse class="st0" cx="7.6" cy="8.7" rx="0.3" ry="0.3"/>
		<path class="st0" d="M8.8,8.4c-0.2,0-0.3,0.1-0.3,0.3S8.6,9,8.8,9s0.3-0.1,0.3-0.3S9,8.4,8.8,8.4z"/>
		<ellipse class="st0" cx="10.1" cy="8.7" rx="0.3" ry="0.3"/>
	</g>
</g>
</svg>
