<?xml version="1.0" encoding="utf-8"?>
<!-- Generator: Adobe Illustrator 25.4.1, SVG Export Plug-In . SVG Version: 6.00 Build 0)  -->
<svg version="1.1" id="레이어_1" xmlns="http://www.w3.org/2000/svg" xmlns:xlink="http://www.w3.org/1999/xlink" x="0px"
	 y="0px" viewBox="0 0 17.6 17.6" style="enable-background:new 0 0 17.6 17.6;" xml:space="preserve">
<style type="text/css">
	.st0{fill:#F9637C;}
	.st1{fill:#FFFFFF;}
</style>
<circle class="st0" cx="8.8" cy="8.8" r="8.8"/>
<g>
	<path class="st1" d="M12,7.9v3.5c0,0.4-0.3,0.7-0.7,0.7H6.2c-0.4,0-0.7-0.3-0.7-0.7V7.9H12z"/>
	<path class="st1" d="M12.1,7.6V6.8c0-0.4-0.3-0.8-0.8-0.8H6.2C5.8,6,5.4,6.3,5.4,6.8v0.9L12.1,7.6z"/>
	<g>
		<path class="st1" d="M7.1,7L7.1,7C6.9,7,6.7,6.9,6.7,6.7V5.6c0-0.2,0.2-0.4,0.4-0.4l0,0c0.2,0,0.4,0.2,0.4,0.4v1.1
			C7.5,6.9,7.3,7,7.1,7z"/>
	</g>
	<g>
		<path class="st1" d="M10.4,7L10.4,7C10.2,7,10,6.8,10,6.6v-1c0-0.2,0.2-0.4,0.4-0.4l0,0c0.2,0,0.4,0.2,0.4,0.4v1.1
			C10.8,6.9,10.7,7,10.4,7z"/>
	</g>
	<path class="st0" d="M7.4,9.7H7.2C7,9.7,6.9,9.6,6.9,9.4V9.2c0-0.1,0.1-0.3,0.3-0.3h0.2c0.1,0,0.3,0.1,0.3,0.3v0.2
		C7.7,9.6,7.5,9.7,7.4,9.7z"/>
	<path class="st0" d="M7.4,10.9H7.2c-0.1,0-0.3-0.1-0.3-0.3v-0.2c0-0.1,0.1-0.3,0.3-0.3h0.2c0.1,0,0.3,0.1,0.3,0.3v0.2
		C7.7,10.8,7.5,10.9,7.4,10.9z"/>
	<path class="st0" d="M8.9,9.7H8.7c-0.1,0-0.3-0.1-0.3-0.3V9.2c0-0.1,0.1-0.3,0.3-0.3h0.2C9,8.9,9.2,9,9.2,9.2v0.2
		C9.2,9.6,9.1,9.7,8.9,9.7z"/>
	<path class="st0" d="M8.9,10.9H8.7c-0.1,0-0.3-0.1-0.3-0.3v-0.2c0-0.1,0.1-0.3,0.3-0.3h0.2c0.1,0,0.3,0.1,0.3,0.3v0.2
		C9.2,10.8,9.1,10.9,8.9,10.9z"/>
	<path class="st0" d="M10.4,9.7h-0.2c-0.1,0-0.3-0.1-0.3-0.3V9.2c0-0.1,0.1-0.3,0.3-0.3h0.2c0.1,0,0.3,0.1,0.3,0.3v0.2
		C10.7,9.6,10.6,9.7,10.4,9.7z"/>
	<path class="st0" d="M10.4,10.9h-0.2c-0.1,0-0.3-0.1-0.3-0.3v-0.2c0-0.1,0.1-0.3,0.3-0.3h0.2c0.1,0,0.3,0.1,0.3,0.3v0.2
		C10.7,10.8,10.6,10.9,10.4,10.9z"/>
</g>
</svg>
