<?xml version="1.0" encoding="utf-8"?>
<!-- Generator: Adobe Illustrator 25.4.1, SVG Export Plug-In . SVG Version: 6.00 Build 0)  -->
<svg version="1.1" id="레이어_1" xmlns="http://www.w3.org/2000/svg" xmlns:xlink="http://www.w3.org/1999/xlink" x="0px"
	 y="0px" viewBox="0 0 17.6 17.6" style="enable-background:new 0 0 17.6 17.6;" xml:space="preserve">
<style type="text/css">
	.st0{fill:#3EBBC1;}
	.st1{fill:#FFFFFF;}
	.st2{fill:none;stroke:#3EBBC1;stroke-width:0.7;stroke-linecap:round;stroke-linejoin:round;stroke-miterlimit:10;}
</style>
<circle class="st0" cx="8.8" cy="8.8" r="8.8"/>
<g>
	<path class="st1" d="M11.2,12.2H6.3c-0.4,0-0.8-0.4-0.8-0.8V6.7c0-0.4,0.4-0.8,0.8-0.8h4.9c0.4,0,0.8,0.4,0.8,0.8v4.7
		C12,11.8,11.6,12.2,11.2,12.2z"/>
	<path class="st2" d="M5.3,10.5l2.2-1.7C7.7,8.7,8,8.7,8.1,8.9l1.1,1.2c0.2,0.2,0.4,0.2,0.6,0l0.7-0.6c0.2-0.1,0.4-0.1,0.6,0l1.1,1"
		/>
	<ellipse class="st0" cx="10" cy="7.6" rx="0.6" ry="0.6"/>
</g>
</svg>
