<?xml version="1.0" encoding="utf-8"?>
<!-- Generator: Adobe Illustrator 25.4.1, SVG Export Plug-In . SVG Version: 6.00 Build 0)  -->
<svg version="1.1" id="레이어_1" xmlns="http://www.w3.org/2000/svg" xmlns:xlink="http://www.w3.org/1999/xlink" x="0px"
	 y="0px" viewBox="0 0 17.6 17.6" style="enable-background:new 0 0 17.6 17.6;" xml:space="preserve">
<style type="text/css">
	.st0{fill:#77AAFF;}
	.st1{fill:#FFFFFF;}
	.st2{fill:none;stroke:#77AAFF;stroke-width:0.45;stroke-linecap:round;stroke-linejoin:round;stroke-miterlimit:10;}
	.st3{fill:none;stroke:#77AAFF;stroke-width:0.4;stroke-miterlimit:10;}
</style>
<circle class="st0" cx="8.8" cy="8.8" r="8.8"/>
<g>
	<path class="st1" d="M11.7,11.7H5.9c-0.2,0-0.4-0.2-0.4-0.4v-3c0-0.2,0.2-0.4,0.4-0.4h5.8c0.2,0,0.4,0.2,0.4,0.4v3
		C12.2,11.5,12,11.7,11.7,11.7z"/>
	<line class="st2" x1="8.2" y1="8.8" x2="9.5" y2="8.8"/>
	<path class="st1" d="M11.8,7.5H9H5.9c-0.2,0-0.3-0.2-0.2-0.4l0.7-1C6.5,6,6.6,5.9,6.8,5.9H9h2c0.2,0,0.3,0.1,0.4,0.2l0.6,1
		C12.1,7.3,12,7.5,11.8,7.5z"/>
	<line class="st3" x1="8.8" y1="5.8" x2="8.8" y2="7.6"/>
</g>
</svg>
