<svg xmlns="http://www.w3.org/2000/svg" width="26" height="26">
    <path data-name="사각형 1202" style="fill:none" d="M0 0h26v26H0z"/>
    <path data-name="패스 35259" d="M349.367 1149.715a.6.6 0 0 1-.29-.075l-6.111-3.376-6.11 3.376a.6.6 0 0 1-.882-.621l1.173-7.194-4.961-5.088a.6.6 0 0 1 .338-1.012l6.838-1.045 3.064-6.527a.625.625 0 0 1 1.086 0l3.065 6.526 6.837 1.045a.6.6 0 0 1 .338 1.012l-4.966 5.089 1.173 7.194a.6.6 0 0 1-.592.7zm-6.4-4.737a.6.6 0 0 1 .29.075l5.32 2.94-1.024-6.273a.6.6 0 0 1 .163-.516l4.363-4.47-6-.917a.6.6 0 0 1-.453-.338l-2.657-5.659-2.657 5.66a.6.6 0 0 1-.452.338l-6 .917 4.358 4.469a.6.6 0 0 1 .163.516l-1.024 6.273 5.319-2.94a.6.6 0 0 1 .29-.075z" transform="translate(-330.015 -1125.837)" style="fill:#f6cf46"/>
</svg>
