<svg id="ico_dark" xmlns="http://www.w3.org/2000/svg" width="24" height="24">
    <defs>
        <style>
            .cls-2{fill:none;stroke:#999;stroke-linecap:round;stroke-linejoin:round;stroke-width:1.3px}
        </style>
    </defs>
    <path id="사각형_1122" data-name="사각형 1122" style="fill:none" d="M0 0h24v24H0z"/>
    <g id="그룹_10183" data-name="그룹 10183" transform="translate(-948.5 -48.544)">
        <circle id="타원_80" data-name="타원 80" class="cls-2" cx="8.37" cy="8.37" r="8.37" transform="translate(952.174 52.174)"/>
        <path id="선_440" data-name="선 440" class="cls-2" transform="translate(960.544 52.174)" d="M0 0v16.74"/>
        <path id="선_441" data-name="선 441" class="cls-2" transform="translate(960.544 53.011)" d="M3.348 0 0 3.348"/>
        <path id="선_442" data-name="선 442" class="cls-2" transform="translate(960.544 54.685)" d="M5.859 0 0 5.859"/>
        <path id="선_443" data-name="선 443" class="cls-2" transform="translate(960.544 57.196)" d="M7.533 0 0 7.533"/>
        <path id="선_444" data-name="선 444" class="cls-2" transform="translate(960.544 60.544)" d="M8.37 0 0 8.37"/>
        <path id="선_445" data-name="선 445" class="cls-2" transform="translate(960.544 50.5)" d="M0 0v1.674"/>
        <path id="선_446" data-name="선 446" class="cls-2" transform="translate(955.522 51.846)" d="m0 0 .837 1.45"/>
        <path id="선_447" data-name="선 447" class="cls-2" transform="translate(951.846 55.522)" d="m0 0 1.45.837"/>
        <path id="선_448" data-name="선 448" class="cls-2" transform="translate(950.5 60.544)" d="M0 0h1.674"/>
        <path id="선_449" data-name="선 449" class="cls-2" transform="translate(951.846 64.729)" d="M0 .837 1.45 0"/>
        <path id="선_450" data-name="선 450" class="cls-2" transform="translate(955.522 67.793)" d="M0 1.45.837 0"/>
        <path id="선_451" data-name="선 451" class="cls-2" transform="translate(960.544 68.914)" d="M0 1.674V0"/>
    </g>
</svg>
