<svg xmlns="http://www.w3.org/2000/svg" width="28" height="28">
    <path data-name="사각형 1202" style="fill:none" d="M0 0h28v28H0z"/>
    <path data-name="패스 35260" d="M385.387 1136.92a.642.642 0 0 0-.51-.43l-7.3-1.115-3.269-6.962a.667.667 0 0 0-1.159 0l-3.269 6.963-4.687.717-2.134.326-.475.073a.641.641 0 0 0-.362 1.081l.836.857 2.134 2.188 2.324 2.382-1.252 7.675a.64.64 0 0 0 .632.744.627.627 0 0 0 .309-.081l6.519-3.6 6.519 3.6a.639.639 0 0 0 .941-.663l-1.246-7.675 5.3-5.428a.642.642 0 0 0 .149-.652zm-6.59 5.417a.637.637 0 0 0-.174.551l1.091 6.693-5.675-3.136a.633.633 0 0 0-.619 0l-5.675 3.136 1.091-6.693a.643.643 0 0 0-.173-.551l-3.466-3.554v-1.394l5.218-.8a.644.644 0 0 0 .482-.362l2.835-6.039 2.835 6.038a.644.644 0 0 0 .482.362l6.4.977z" transform="translate(-360.046 -1126.075)" style="fill:#555"/>
</svg>
