<svg id="ic_edit" xmlns="http://www.w3.org/2000/svg" width="15" height="15">
    <defs>
        <style>
            .cls-2{fill:none;stroke:#333;stroke-linecap:round;stroke-linejoin:round;stroke-width:1.1px}
        </style>
    </defs>
    <path id="사각형_1198" data-name="사각형 1198" style="fill:none" d="M0 0h15v15H0z"/>
    <g id="ic_club_edit" transform="translate(-6.158 -6.158)">
        <path id="패스_24847" data-name="패스 24847" class="cls-2" d="M1140.01 1329.255v4.6a1.152 1.152 0 0 1-1.151 1.151h-9.209a1.151 1.151 0 0 1-1.151-1.151v-9.21a1.151 1.151 0 0 1 1.151-1.151h4.6" transform="translate(-1121.342 -1314.852)"/>
        <g id="그룹_1531" data-name="그룹 1531" transform="translate(12.338 7.158)">
            <path id="패스_24848" data-name="패스 24848" class="cls-2" d="M1139.8 1328.732h-2.3v-2.3l5.349-5.348a.577.577 0 0 1 .815 0l1.488 1.487a.578.578 0 0 1 0 .815z" transform="translate(-1137.499 -1320.913)"/>
            <path id="선_411" data-name="선 411" class="cls-2" transform="translate(4.148 1.369)" d="m0 0 2.302 2.302"/>
        </g>
    </g>
</svg>
