<svg id="ico_view_set" data-name="ico_view set" xmlns="http://www.w3.org/2000/svg" width="24" height="24">
    <defs>
        <style>
            .cls-4{fill:none}.cls-2{isolation:isolate}.cls-3{fill:#1ca7ec}.cls-4{stroke:#1ca7ec;stroke-linecap:round;stroke-linejoin:round;stroke-width:.75px}
        </style>
    </defs>
    <path id="사각형_1154" data-name="사각형 1154" style="fill:none" d="M0 0h24v24H0z"/>
    <g id="Aa" class="cls-2" transform="translate(-245.161 -351.226)">
        <g id="그룹_11004" data-name="그룹 11004" class="cls-2">
            <path id="패스_35250" data-name="패스 35250" class="cls-3" d="M247.229 370.447h-.74l5.181-14.523h.661l5.2 14.523h-.8l-1.8-5.161h-5.881zm4.821-13.762h-.08c-.54 1.82-1.06 3.3-1.68 5.06l-1.02 2.9h5.441l-1-2.9a98.834 98.834 0 0 1-1.661-5.06z"/>
            <path id="패스_35251" data-name="패스 35251" class="cls-3" d="M259.229 367.847a3.264 3.264 0 0 1 1.66-2.921c1.121-.66 2.8-.8 5.221-1.04a5.491 5.491 0 0 0-.42-2.46 2.19 2.19 0 0 0-2.14-1.081 6.13 6.13 0 0 0-3.441 1.18l-.36-.66a7.5 7.5 0 0 1 3.841-1.16c2.48 0 3.241 1.761 3.241 3.921v6.821h-.6l-.1-1.4h-.061a6.214 6.214 0 0 1-3.8 1.48 2.716 2.716 0 0 1-3.041-2.68zm6.881.42v-3.781c-2.339.22-3.82.38-4.78.94a2.734 2.734 0 0 0-1.361 2.4 2.075 2.075 0 0 0 2.361 2.04 5.417 5.417 0 0 0 3.78-1.599z"/>
        </g>
        <g id="그룹_11005" data-name="그룹 11005" class="cls-2">
            <path id="패스_35252" data-name="패스 35252" class="cls-4" d="M247.229 370.447h-.74l5.181-14.523h.661l5.2 14.523h-.8l-1.8-5.161h-5.881zm4.821-13.762h-.08c-.54 1.82-1.06 3.3-1.68 5.06l-1.02 2.9h5.441l-1-2.9a98.834 98.834 0 0 1-1.661-5.06z"/>
            <path id="패스_35253" data-name="패스 35253" class="cls-4" d="M259.229 367.847a3.264 3.264 0 0 1 1.66-2.921c1.121-.66 2.8-.8 5.221-1.04a5.491 5.491 0 0 0-.42-2.46 2.19 2.19 0 0 0-2.14-1.081 6.13 6.13 0 0 0-3.441 1.18l-.36-.66a7.5 7.5 0 0 1 3.841-1.16c2.48 0 3.241 1.761 3.241 3.921v6.821h-.6l-.1-1.4h-.061a6.214 6.214 0 0 1-3.8 1.48 2.716 2.716 0 0 1-3.041-2.68zm6.881.42v-3.781c-2.339.22-3.82.38-4.78.94a2.734 2.734 0 0 0-1.361 2.4 2.075 2.075 0 0 0 2.361 2.04 5.417 5.417 0 0 0 3.78-1.599z"/>
        </g>
    </g>
</svg>
