<svg id="ico_reset" xmlns="http://www.w3.org/2000/svg" width="20" height="20">
    <defs>
        <style>
            .cls-2{fill:#333}
        </style>
    </defs>
    <path id="사각형_1072" data-name="사각형 1072" style="fill:none" d="M0 0h20v20H0z"/>
    <path id="패스_35105" data-name="패스 35105" class="cls-2" d="M462.932 545.764a7.467 7.467 0 1 1 0-14.933.844.844 0 1 1 0 1.687 5.779 5.779 0 1 0 5.779 5.779.844.844 0 1 1 1.687 0 7.461 7.461 0 0 1-7.467 7.467z" transform="translate(-452.965 -527.764)"/>
    <path id="패스_35106" data-name="패스 35106" class="cls-2" d="M1000 383.011v-2.794a.116.116 0 0 1 .188-.091l1.733 1.368 1.805 1.426a.116.116 0 0 1 0 .182l-1.805 1.426-1.733 1.368a.116.116 0 0 1-.188-.091z" transform="translate(-990.034 -379.1)"/>
</svg>
