<svg xmlns="http://www.w3.org/2000/svg" width="28" height="28">
    <path data-name="사각형 1202" style="fill:none" d="M0 0h28v28H0z"/>
    <path data-name="패스 35266" d="M559.387 1136.92a.642.642 0 0 0-.51-.43l-6.877-1.05-.419-.065-2.964-6.313-.305-.649a.667.667 0 0 0-1.159 0l-.305.649-2.964 6.314-6.821 1.042-.475.073a.641.641 0 0 0-.362 1.081l.836.857 4.458 4.571-1.207 7.4-.045.274a.64.64 0 0 0 .632.744.627.627 0 0 0 .309-.081l1.7-.937 4.823-2.665L552 1150.1l2.248 1.242a.639.639 0 0 0 .941-.663l-1.251-7.679 5.3-5.428a.642.642 0 0 0 .149-.652zm-6.59 5.417a.638.638 0 0 0-.174.551l1.091 6.693-1.714-.946v-11.9l5.451.832z" transform="translate(-534.046 -1126.075)" style="fill:#555"/>
</svg>
