<svg xmlns="http://www.w3.org/2000/svg" width="28" height="28">
    <path data-name="사각형 1202" style="fill:none" d="M0 0h28v28H0z"/>
    <path data-name="패스 35262" d="M442.387 1136.92a.642.642 0 0 0-.51-.43l-7.3-1.115-3.269-6.962a.667.667 0 0 0-1.159 0l-3.269 6.963-.419.065-6.4.977-.475.073a.641.641 0 0 0-.362 1.081l.836.857 4.458 4.571-1.207 7.4-.045.274a.64.64 0 0 0 .632.744.627.627 0 0 0 .309-.081l1.7-.937.558-.308 4.264-2.357 6.519 3.6a.639.639 0 0 0 .941-.663l-1.251-7.672 5.3-5.428a.642.642 0 0 0 .149-.652zm-6.59 5.417a.637.637 0 0 0-.174.551l1.091 6.693-5.675-3.136a.633.633 0 0 0-.619 0l-3.955 2.185v-11.893l.951-.145a.644.644 0 0 0 .482-.362l2.835-6.039 2.835 6.038a.644.644 0 0 0 .482.362l6.4.977z" transform="translate(-417.046 -1126.075)" style="fill:#555"/>
</svg>
