<svg xmlns="http://www.w3.org/2000/svg" width="28" height="28">
    <path data-name="사각형 1202" style="fill:none" d="M0 0h28v28H0z"/>
    <path data-name="패스 35268" d="M616.387 1136.92a.643.643 0 0 0-.511-.43l-2.608-.4-4.687-.717-2.964-6.313-.305-.649a.667.667 0 0 0-1.159 0l-.305.649-2.964 6.314-6.821 1.043-.474.072a.64.64 0 0 0-.362 1.081l.835.857 4.459 4.571-1.208 7.4-.045.274a.639.639 0 0 0 .941.663l1.7-.937 4.824-2.665 4.823 2.665 1.7.937a.636.636 0 0 0 .679-.036.64.64 0 0 0 .263-.626l-.045-.274-1.208-7.4 2.331-2.387 2.969-3.042a.642.642 0 0 0 .142-.65zm-3.119 1.86v-1.392l1.182.18z" transform="translate(-591.046 -1126.075)" style="fill:#555"/>
</svg>
