<svg xmlns="http://www.w3.org/2000/svg" id="logo" width="156" height="55" viewBox="0 0 156 55">
    <defs>
        <style>
            .cls-2{fill:#fff}.cls-5{fill:#333}
        </style>
    </defs>
    <g id="그룹_1419" transform="translate(-175.538 -617.038)">
        <circle id="타원_53" cx="27.5" cy="27.5" r="27.5" fill="#f6cf46" transform="translate(175.538 672.038) rotate(-90)"/>
        <g id="그룹_849" transform="translate(182.938 632.864)">
            <path id="패스_4864" d="M171.175-69.219v-.711.017z" class="cls-2" transform="translate(-154.659 82.909)"/>
            <path id="패스_4865" d="M193.942-68.5a1.512 1.512 0 0 0-1.116-.5 1.533 1.533 0 0 0-1.509 1.389 5.883 5.883 0 0 1-5.071 5.467 5.269 5.269 0 0 1-3.809-1.065 6.067 6.067 0 0 1-2.39-4.374 1.536 1.536 0 0 0-1.514-1.408 1.49 1.49 0 0 0-1.093.475 1.6 1.6 0 0 0-.429 1.185 9.217 9.217 0 0 0 4.332 7.137 8.37 8.37 0 0 0 4.342 1.213 8.314 8.314 0 0 0 5.219-1.84 9.175 9.175 0 0 0 3.437-6.478 1.564 1.564 0 0 0-.399-1.201z" class="cls-2" transform="translate(-158.259 82.329)"/>
            <path id="패스_4866" d="M143.849-103.543a1.575 1.575 0 0 0-1.161-.513 1.585 1.585 0 0 0-1.585 1.585v6.665a7.772 7.772 0 0 0-6.384-1.663 8.18 8.18 0 0 0-6.913 9.035 8.28 8.28 0 0 0 9.8 7.21 8.244 8.244 0 0 0 6.67-8.2v-1.645-11.517a1.3 1.3 0 0 0-.427-.957zm-2.755 14.52a5.108 5.108 0 0 1-4.751 4.769 5.092 5.092 0 0 1-5.43-5.067 5.115 5.115 0 0 1 5.067-5.106 5.093 5.093 0 0 1 5.114 5.404z" class="cls-2" transform="translate(-127.766 104.056)"/>
            <g id="그룹_847" opacity="0.45" transform="translate(29.61 3.439)">
                <path id="패스_4867" d="M213.971-91.969h-6.878a1.521 1.521 0 0 1-1.522-1.521 1.522 1.522 0 0 1 1.522-1.522h6.878a1.522 1.522 0 0 1 1.521 1.522 1.521 1.521 0 0 1-1.521 1.521z" class="cls-2" transform="translate(-205.572 95.012)"/>
            </g>
            <g id="그룹_848" opacity="0.6" transform="translate(33.049 0)">
                <path id="패스_4868" d="M216.138-92.235a1.521 1.521 0 0 1-1.522-1.521v-8.778a1.522 1.522 0 0 1 1.522-1.522 1.521 1.521 0 0 1 1.521 1.522v8.778a1.521 1.521 0 0 1-1.521 1.521z" class="cls-2" transform="translate(-214.616 104.056)"/>
            </g>
            <path id="패스_4869" d="M219.575-100.616h-1.916v-1.919a1.52 1.52 0 0 0-1.52-1.52 1.523 1.523 0 0 0-1.523 1.523v2.632a2.325 2.325 0 0 0 2.325 2.325h2.637a1.52 1.52 0 0 0 1.52-1.52 1.523 1.523 0 0 0-1.523-1.521z" class="cls-2" transform="translate(-181.567 104.056)"/>
        </g>
    </g>
    <g id="그룹_901" transform="translate(64.006 16.409)">
        <path id="패스_4969" d="M256.656 112.278h-.208a1.639 1.639 0 0 0-1.7 1.154 1.354 1.354 0 0 0-.058.391v6.443a2.841 2.841 0 0 1-.678 1.941 4.457 4.457 0 0 1-5.965.019 2.861 2.861 0 0 1-.7-1.967v-6.436a1.333 1.333 0 0 0-.059-.392 1.633 1.633 0 0 0-1.687-1.153h-.224c-1.1 0-1.724.365-1.907 1.105a1.312 1.312 0 0 0-.064.406v7.153a5.384 5.384 0 0 0 2.165 4.286 7.9 7.9 0 0 0 4.8 1.586h1.3a7.8 7.8 0 0 0 4.839-1.587 5.4 5.4 0 0 0 2.124-4.285v-7.153a1.281 1.281 0 0 0-.061-.394c-.203-.752-.829-1.117-1.917-1.117z" class="cls-5" transform="translate(-224.947 -104.62)"/>
        <path id="패스_4970" d="M324.921 112.278h-.206a1.646 1.646 0 0 0-1.7 1.152 1.339 1.339 0 0 0-.059.392v6.443a2.848 2.848 0 0 1-.678 1.941 4.455 4.455 0 0 1-5.964.019 2.859 2.859 0 0 1-.7-1.967v-6.437a1.354 1.354 0 0 0-.06-.391 1.633 1.633 0 0 0-1.687-1.153h-.224c-1.1 0-1.724.365-1.9 1.1a1.308 1.308 0 0 0-.067.408v7.153a5.383 5.383 0 0 0 2.166 4.286 7.9 7.9 0 0 0 4.8 1.586h1.3a7.794 7.794 0 0 0 4.839-1.587 5.393 5.393 0 0 0 2.124-4.285v-7.153a1.238 1.238 0 0 0-.061-.392c-.199-.749-.825-1.115-1.923-1.115z" class="cls-5" transform="translate(-250.897 -104.62)"/>
        <path id="패스_4971" d="M302.769 100.2c-1.171 0-1.928.593-1.928 1.51v19c0 .917.757 1.51 1.928 1.51 1.223 0 2.013-.593 2.013-1.51v-19a1.3 1.3 0 0 0-.4-.934 2.286 2.286 0 0 0-1.613-.576z" class="cls-5" transform="translate(-246.781 -100.029)"/>
        <path id="패스_4973" d="M280.466 111.522a7.83 7.83 0 0 0-.987 0 8.4 8.4 0 0 0-4.378 1.229 7.427 7.427 0 0 0-3.626 6.271v13.184c0 .847.866 1.51 1.971 1.51 1.123 0 1.971-.649 1.971-1.51v-6.725a8.425 8.425 0 0 0 4.067 1.046h.007a7.518 7.518 0 1 0 .976-15zm-3.758 10.014a3.786 3.786 0 0 1 2.851-6.269c.091 0 .182 0 .273.01a3.8 3.8 0 0 1 3.52 3.769 3.943 3.943 0 0 1-4 3.789h-.053a3.758 3.758 0 0 1-2.592-1.298z" class="cls-5" transform="translate(-235.617 -104.328)"/>
        <path id="패스_4974" d="M227.678 99.926c-1.1 0-1.97.663-1.97 1.51v6.724a8.419 8.419 0 0 0-4.072-1.046 7.518 7.518 0 0 0-.977 15c.162.011.326.016.488.016s.325 0 .5-.015a8.4 8.4 0 0 0 4.377-1.23 7.426 7.426 0 0 0 3.627-6.271v-13.179a1.776 1.776 0 0 0-1.973-1.509zm-2.211 14.65a3.929 3.929 0 0 1-4.052 3.784 3.786 3.786 0 1 1 4.052-3.784z" class="cls-5" transform="translate(-213.627 -99.926)"/>
        <path id="패스_4972" d="M350.078 117.868c-1.056-.351-2.17-.658-3.066-.9-.5-.138-.937-.257-1.252-.355-1.66-.5-1.918-.759-1.894-1.2.025-.647 1.42-.938 2.4-.938a9.147 9.147 0 0 1 3.667.786 2 2 0 0 0 2.42-.662.624.624 0 0 0 .039-.068 1.414 1.414 0 0 0 .234-1.174 1.673 1.673 0 0 0-.952-1.086 13.335 13.335 0 0 0-5.571-1.124c-3.13 0-6.349 1.277-6.484 4.133-.1 2.419 1.784 3.374 3.839 4.044 1.176.4 2.389.744 3.609 1.036 1.832.4 1.929.8 1.87 1.2-.12.706-1.509 1.029-2.75 1.029h-.042a6.387 6.387 0 0 1-3.985-1.339 1.97 1.97 0 0 0-2.411 0 1.514 1.514 0 0 0-.241.244 1.5 1.5 0 0 0 .037 2.181 9.922 9.922 0 0 0 6.4 2.246h.318c3.911 0 6.761-1.808 6.774-4.28a3.593 3.593 0 0 0-2.959-3.773z" class="cls-5" transform="translate(-261.07 -103.968)"/>
    </g>
</svg>
