<svg xmlns="http://www.w3.org/2000/svg" width="24" height="24" viewBox="0 0 24 24">
  <g id="그룹_1997" data-name="그룹 1997" transform="translate(-708 -656)">
    <path id="패스_25383" data-name="패스 25383" d="M0,0H24V24H0Z" transform="translate(708 656)" fill="#fff"/>
    <path id="패스_25384" data-name="패스 25384" d="M1,0H13a1,1,0,0,1,1,1V19a1,1,0,0,1-1,1H1a1,1,0,0,1-1-1V1A1,1,0,0,1,1,0Z" transform="translate(713 658)" fill="none" stroke="#999" stroke-linecap="round" stroke-width="1.3"/>
    <rect id="사각형_1476" data-name="사각형 1476" width="24" height="10" transform="translate(708 663)" fill="#fff"/>
    <g id="그룹_1996" data-name="그룹 1996" transform="translate(685 -2)">
      <path id="패스_24956" data-name="패스 24956" d="M3.641,0H0V3.647" transform="translate(45 670.003) rotate(135)" fill="none" stroke="#999" stroke-linecap="round" stroke-linejoin="round" stroke-width="1.3"/>
      <path id="패스_24957" data-name="패스 24957" d="M3.641,3.647H0V0" transform="translate(27.579 667.423) rotate(45)" fill="none" stroke="#999" stroke-linecap="round" stroke-linejoin="round" stroke-width="1.3"/>
      <line id="선_457" data-name="선 457" y1="18" transform="translate(44 670.015) rotate(90)" fill="none" stroke="#999" stroke-linecap="round" stroke-linejoin="round" stroke-width="1.3"/>
    </g>
  </g>
</svg>
