<svg xmlns="http://www.w3.org/2000/svg" width="28" height="28">
    <path data-name="사각형 1202" style="fill:none" d="M0 0h28v28H0z"/>
    <path data-name="패스 35263" d="M471.387 1136.92a.642.642 0 0 0-.51-.43l-7.3-1.115-3.269-6.962a.667.667 0 0 0-1.159 0l-1.555 3.311-1.715 3.652-6.821 1.042-.475.073a.641.641 0 0 0-.362 1.081l.836.857 4.458 4.571-1.207 7.4-.045.274a.64.64 0 0 0 .632.744.627.627 0 0 0 .309-.081l1.7-.937 2.692-1.487 2.131-1.178 6.519 3.6a.639.639 0 0 0 .941-.663l-1.249-7.672 5.3-5.428a.642.642 0 0 0 .149-.652zm-6.59 5.417a.637.637 0 0 0-.174.551l1.091 6.693-5.675-3.136a.633.633 0 0 0-.619 0l-1.821 1.006v-12.714l2.134-4.545 2.835 6.038a.644.644 0 0 0 .482.362l6.4.977z" transform="translate(-446.046 -1126.075)" style="fill:#555"/>
</svg>
