<svg xmlns="http://www.w3.org/2000/svg" width="28" height="28">
    <path data-name="사각형 1202" style="fill:none" d="M0 0h28v28H0z"/>
    <path data-name="패스 35267" d="M587.238 1137.57a.64.64 0 0 0-.362-1.081l-4.741-.725-2.553-.39-2.964-6.313-.305-.649a.667.667 0 0 0-1.159 0l-.305.649-2.964 6.314-6.821 1.043-.474.072a.64.64 0 0 0-.362 1.081l.835.857 4.459 4.571-1.208 7.4-.045.274a.639.639 0 0 0 .941.663l1.7-.937 4.824-2.665 4.824 2.665 1.7.937a.636.636 0 0 0 .679-.036.64.64 0 0 0 .263-.626l-1.055-6.468-.2-1.208.2-.2zm-5.1-.51 3.316.507-3.316 3.4z" transform="translate(-562.046 -1126.075)" style="fill:#555"/>
</svg>
