<svg xmlns="http://www.w3.org/2000/svg" width="26" height="26">
    <path data-name="사각형 1203" style="fill:none" d="M0 0h26v26H0z"/>
    <path data-name="패스 35269" d="M644.923 1136.365a.6.6 0 0 0-.479-.4l-.444-.065-6.393-.978-2.778-5.922-.286-.608a.625.625 0 0 0-1.086 0l-.286.608-2.778 5.918-6.393.982-.444.067a.6.6 0 0 0-.339 1.013l.783.8 4.179 4.284-1.132 6.936-.042.257a.6.6 0 0 0 .882.621l1.589-.878 4.521-2.5 4.521 2.5 1.589.878a.6.6 0 0 0 .636-.034.6.6 0 0 0 .246-.587l-.042-.257-1.132-6.937 4.185-4.286.783-.8a.6.6 0 0 0 .14-.612z" transform="translate(-621.046 -1126.076)" style="fill:#f6cf46"/>
</svg>
