<svg id="ic_2sec" xmlns="http://www.w3.org/2000/svg" width="38" height="24">
    <defs>
        <style>
            .cls-3{isolation:isolate}.cls-4{fill:#878787}
        </style>
    </defs>
    <g id="사각형_39" data-name="사각형 39" style="stroke:#999;stroke-width:2px;fill:none">
        <rect width="38" height="24" rx="3" style="stroke:none"/>
        <rect x="1" y="1" width="36" height="22" rx="2" style="fill:none"/>
    </g>
    <path id="사각형_40" data-name="사각형 40" transform="translate(18)" style="fill:#999" d="M0 0h2v24H0z"/>
    <g id="_1" data-name="1" class="cls-3" transform="translate(-289.71 -347.676)">
        <g id="그룹_11007" data-name="그룹 11007" class="cls-3">
            <path id="패스_35255" data-name="패스 35255" class="cls-4" d="M297.71 362.693h1.59v-4.487h-1.34v-.91a4.8 4.8 0 0 0 1.719-.62h1.09v6.017h1.388v1.189h-4.447z"/>
        </g>
    </g>
    <g id="_2" data-name="2" class="cls-3" transform="translate(-231.697 -347.709)">
        <g id="그룹_11008" data-name="그룹 11008" class="cls-3">
            <path id="패스_35256" data-name="패스 35256" class="cls-4" d="M257.32 363.033c1.929-1.839 3.2-3.1 3.2-4.168a1.042 1.042 0 0 0-1.109-1.169 1.948 1.948 0 0 0-1.36.769l-.8-.8a2.977 2.977 0 0 1 2.349-1.129 2.156 2.156 0 0 1 2.328 2.248c0 1.259-1.159 2.558-2.478 3.938.369-.04.859-.08 1.209-.08h1.619v1.239h-4.958z"/>
        </g>
    </g>
</svg>
