<svg xmlns="http://www.w3.org/2000/svg" width="28" height="28">
    <path data-name="사각형 1202" style="fill:none" d="M0 0h28v28H0z"/>
    <path data-name="패스 35265" d="M530.387 1136.92a.642.642 0 0 0-.51-.43l-7.3-1.115-1.715-3.652-1.249-2.661-.305-.649a.667.667 0 0 0-1.159 0l-.305.649-2.964 6.314-6.821 1.042-.475.073a.641.641 0 0 0-.362 1.081l.836.857 4.458 4.571-1.207 7.4-.045.274a.64.64 0 0 0 .632.744.627.627 0 0 0 .309-.081l1.7-.937 4.822-2.665 2.137 1.181 4.382 2.421a.639.639 0 0 0 .941-.663l-1.249-7.674 5.3-5.428a.642.642 0 0 0 .149-.652zm-6.59 5.417a.638.638 0 0 0-.174.551l1.091 6.693-3.847-2.126v-12.718l.7 1.493a.644.644 0 0 0 .482.362l6.4.977z" transform="translate(-505.046 -1125.682)" style="fill:#555"/>
</svg>
