<svg xmlns="http://www.w3.org/2000/svg" width="28" height="28">
    <path data-name="사각형 1202" style="fill:none" d="M0 0h28v28H0z"/>
    <path data-name="패스 35259" d="M350.528 1151.179a.638.638 0 0 1-.309-.08l-6.52-3.6-6.519 3.6a.64.64 0 0 1-.941-.663l1.252-7.676-5.293-5.428a.64.64 0 0 1 .361-1.08l7.3-1.115 3.269-6.964a.667.667 0 0 1 1.159 0l3.27 6.963 7.295 1.115a.64.64 0 0 1 .361 1.08l-5.3 5.43 1.252 7.676a.642.642 0 0 1-.632.743zm-6.829-5.054a.637.637 0 0 1 .309.08l5.676 3.137-1.092-6.693a.64.64 0 0 1 .174-.551l4.655-4.769-6.4-.979a.64.64 0 0 1-.483-.36l-2.835-6.038-2.835 6.039a.637.637 0 0 1-.482.36l-6.4.978 4.65 4.768a.64.64 0 0 1 .174.551l-1.093 6.693 5.675-3.137a.64.64 0 0 1 .308-.079z" transform="translate(-329.883 -1125.441)" style="fill:#555"/>
</svg>
