<svg xmlns="http://www.w3.org/2000/svg" id="logo_mo" width="75.121" height="23.998" viewBox="0 0 75.121 23.998">
    <defs>
        <style>
            .cls-1{fill:#333}
        </style>
    </defs>
    <path id="패스_4969" d="M254.226 112.277h-.17a1.338 1.338 0 0 0-1.391.942 1.105 1.105 0 0 0-.048.319v5.262a2.32 2.32 0 0 1-.554 1.585 3.639 3.639 0 0 1-4.871.015 2.336 2.336 0 0 1-.568-1.606v-5.256a1.089 1.089 0 0 0-.048-.32 1.334 1.334 0 0 0-1.377-.941h-.183c-.9 0-1.408.3-1.557.9a1.071 1.071 0 0 0-.053.332v5.841a4.4 4.4 0 0 0 1.768 3.5 6.451 6.451 0 0 0 3.918 1.3h1.061a6.365 6.365 0 0 0 3.952-1.3 4.406 4.406 0 0 0 1.734-3.5v-5.841a1.047 1.047 0 0 0-.05-.322c-.163-.612-.675-.91-1.563-.91z" class="cls-1" transform="translate(-228.333 -106.023)"/>
    <path id="패스_4970" d="M322.49 112.277h-.169a1.344 1.344 0 0 0-1.391.941 1.093 1.093 0 0 0-.049.32v5.262a2.325 2.325 0 0 1-.554 1.585 3.637 3.637 0 0 1-4.87.015 2.334 2.334 0 0 1-.568-1.606v-5.257a1.108 1.108 0 0 0-.049-.319 1.334 1.334 0 0 0-1.377-.941h-.183c-.9 0-1.408.3-1.555.9a1.068 1.068 0 0 0-.055.333v5.841a4.4 4.4 0 0 0 1.769 3.5 6.449 6.449 0 0 0 3.917 1.3h1.062a6.364 6.364 0 0 0 3.952-1.3 4.4 4.4 0 0 0 1.734-3.5v-5.841a1.01 1.01 0 0 0-.05-.32c-.154-.614-.667-.913-1.564-.913z" class="cls-1" transform="translate(-262.043 -106.023)"/>
    <path id="패스_4971" d="M302.415 100.2c-.956 0-1.574.484-1.574 1.233v15.515c0 .749.618 1.233 1.574 1.233 1 0 1.644-.484 1.644-1.233v-15.517a1.061 1.061 0 0 0-.323-.763 1.867 1.867 0 0 0-1.321-.468z" class="cls-1" transform="translate(-256.695 -100.06)"/>
    <path id="패스_4973" d="M278.817 111.52a6.4 6.4 0 0 0-.806 0 6.863 6.863 0 0 0-3.575 1 6.065 6.065 0 0 0-2.961 5.12v10.77c0 .691.707 1.233 1.61 1.233s1.609-.53 1.609-1.233v-5.491a6.879 6.879 0 0 0 3.321.854h.006a6.139 6.139 0 1 0 .8-12.253zm-3.069 8.178a3.092 3.092 0 0 1 2.328-5.119c.074 0 .149 0 .223.008a3.1 3.1 0 0 1 2.874 3.078 3.22 3.22 0 0 1-3.265 3.094h-.043a3.069 3.069 0 0 1-2.117-1.059z" class="cls-1" transform="translate(-242.193 -105.645)"/>
    <path id="패스_4974" d="M225.1 99.926c-.9 0-1.609.542-1.609 1.233v5.491a6.875 6.875 0 0 0-3.325-.854 6.139 6.139 0 0 0-.8 12.253c.132.009.266.013.4.013s.265 0 .409-.013a6.86 6.86 0 0 0 3.575-1 6.064 6.064 0 0 0 2.962-5.12v-10.771a1.45 1.45 0 0 0-1.612-1.232zm-1.8 11.963a3.209 3.209 0 0 1-3.309 3.09 3.091 3.091 0 1 1 3.309-3.09z" class="cls-1" transform="translate(-213.627 -99.926)"/>
    <path id="패스_4972" d="M348.057 116.635c-.862-.287-1.772-.537-2.5-.738-.41-.113-.765-.21-1.022-.29-1.355-.405-1.566-.619-1.547-.976.021-.529 1.16-.766 1.96-.766a7.469 7.469 0 0 1 2.995.641 1.63 1.63 0 0 0 1.976-.54.5.5 0 0 0 .032-.056 1.154 1.154 0 0 0 .191-.959 1.366 1.366 0 0 0-.777-.887 10.889 10.889 0 0 0-4.549-.918c-2.556 0-5.184 1.043-5.295 3.375-.086 1.976 1.457 2.755 3.135 3.3.96.323 1.951.608 2.947.846 1.5.326 1.575.652 1.527.983-.1.577-1.233.84-2.246.84h-.034a5.215 5.215 0 0 1-3.254-1.094 1.609 1.609 0 0 0-1.969 0 1.239 1.239 0 0 0-.2.2 1.228 1.228 0 0 0 .03 1.781 8.1 8.1 0 0 0 5.226 1.834h.26c3.194 0 5.521-1.477 5.531-3.495a2.934 2.934 0 0 0-2.417-3.081z" class="cls-1" transform="translate(-275.374 -105.284)"/>
</svg>
